<?xml version="1.0" standalone="no"?>
<!DOCTYPE svg PUBLIC "-//W3C//DTD SVG 20010904//EN"
 "http://www.w3.org/TR/2001/REC-SVG-20010904/DTD/svg10.dtd">
<svg version="1.0" xmlns="http://www.w3.org/2000/svg"
 width="300.000000pt" height="400.000000pt" viewBox="0 0 300.000000 400.000000"
 preserveAspectRatio="xMidYMid meet">
<metadata>
Created by potrace 1.10, written by Peter Selinger 2001-2011
</metadata>
<g transform="translate(0.000000,400.000000) scale(0.100000,-0.100000)"
fill="#000000" stroke="none">
<path d="M710 2512 c0 -13 131 -100 270 -178 57 -32 125 -80 150 -105 62 -63
140 -108 140 -81 0 4 -15 13 -32 20 -18 6 -58 36 -88 65 -30 29 -89 73 -130
96 -183 105 -250 146 -250 152 0 3 51 -9 113 -28 106 -32 117 -34 219 -28 81
4 115 2 140 -9 18 -8 49 -20 68 -27 19 -8 54 -31 78 -53 23 -21 45 -36 49 -32
14 14 -55 70 -127 104 -78 37 -84 37 -250 32 -57 -1 -94 4 -155 23 -44 14 -99
31 -123 37 -24 6 -50 14 -58 17 -8 3 -14 0 -14 -5z"/>
<path d="M1079 2347 c6 -8 30 -19 53 -27 43 -12 75 -28 203 -100 39 -22 85
-47 103 -55 17 -8 32 -22 32 -30 0 -8 5 -15 10 -15 21 0 8 -20 -36 -56 -41
-34 -48 -36 -66 -25 -18 11 -20 11 -14 -4 3 -9 6 -19 6 -21 0 -2 9 -4 19 -4
11 0 41 18 67 41 76 65 83 67 161 31 85 -39 127 -50 121 -32 -2 7 -17 14 -33
15 -35 3 -128 43 -103 44 9 1 38 -8 64 -19 33 -15 43 -16 35 -6 -15 18 -95 46
-133 46 -23 0 -138 49 -157 66 -8 7 41 52 70 64 16 7 29 16 29 21 0 13 -6 11
-48 -10 -20 -10 -59 -21 -85 -24 -40 -6 -54 -3 -85 17 -20 12 -44 25 -52 29
-12 4 -11 6 3 6 30 2 8 21 -23 21 -16 0 -52 9 -80 20 -61 24 -77 26 -61 7z"/>
<path d="M1555 2190 c-8 -14 46 -22 158 -25 59 -1 111 -6 115 -10 9 -9 -36
-45 -57 -45 -10 0 -26 -7 -37 -15 -18 -14 -17 -15 11 -9 44 10 82 31 99 56 15
21 15 23 -1 30 -10 3 -63 7 -118 7 -55 1 -115 5 -132 10 -18 5 -35 6 -38 1z"/>
<path d="M1830 2100 c0 -5 12 -12 28 -15 15 -3 45 -11 66 -16 l40 -11 -40 -33
c-21 -18 -39 -37 -39 -43 0 -18 -84 -102 -102 -102 -22 0 -55 21 -103 67 -19
18 -44 35 -55 38 -55 11 -105 14 -105 6 0 -9 48 -21 87 -21 15 0 47 -20 84
-52 44 -38 67 -51 91 -51 25 0 39 10 75 51 49 57 64 61 108 32 32 -21 45 -25
45 -12 0 5 -22 19 -49 32 l-49 22 34 30 c19 17 34 33 34 37 0 8 -77 38 -117
45 -18 3 -33 1 -33 -4z"/>
<path d="M1974 1852 c3 -5 48 -37 100 -73 52 -35 95 -67 96 -71 0 -9 -64 16
-183 71 -95 44 -97 45 -97 33 0 -5 30 -22 68 -37 37 -16 72 -32 78 -37 19 -14
148 -57 156 -52 17 11 5 25 -59 70 -38 26 -85 60 -105 76 -35 26 -65 38 -54
20z"/>
</g>
</svg>
